<?xml version="1.0" standalone="yes"?>
<svg xmlns="http://www.w3.org/2000/svg" version="1.1" width="1080" height="1080">
  <rect x="0" y="0" width="1080" height="1080" style="fill:#ffffff;shape-rendering:crispEdges;"/>
  <rect x="148.9655172413793" y="148.9655172413793" width="37.241379310344826" height="37.241379310344826" style="fill:#000000;shape-rendering:crispEdges;"/>
  <rect x="186.20689655172413" y="148.9655172413793" width="37.241379310344826" height="37.241379310344826" style="fill:#000000;shape-rendering:crispEdges;"/>
  <rect x="223.44827586206895" y="148.9655172413793" width="37.241379310344826" height="37.241379310344826" style="fill:#000000;shape-rendering:crispEdges;"/>
  <rect x="260.6896551724138" y="148.9655172413793" width="37.241379310344826" height="37.241379310344826" style="fill:#000000;shape-rendering:crispEdges;"/>
  <rect x="297.9310344827586" y="148.9655172413793" width="37.241379310344826" height="37.241379310344826" style="fill:#000000;shape-rendering:crispEdges;"/>
  <rect x="335.17241379310343" y="148.9655172413793" width="37.241379310344826" height="37.241379310344826" style="fill:#000000;shape-rendering:crispEdges;"/>
  <rect x="372.41379310344826" y="148.9655172413793" width="37.241379310344826" height="37.241379310344826" style="fill:#000000;shape-rendering:crispEdges;"/>
  <rect x="446.8965517241379" y="148.9655172413793" width="37.241379310344826" height="37.241379310344826" style="fill:#000000;shape-rendering:crispEdges;"/>
  <rect x="484.13793103448273" y="148.9655172413793" width="37.241379310344826" height="37.241379310344826" style="fill:#000000;shape-rendering:crispEdges;"/>
  <rect x="670.3448275862069" y="148.9655172413793" width="37.241379310344826" height="37.241379310344826" style="fill:#000000;shape-rendering:crispEdges;"/>
  <rect x="707.5862068965516" y="148.9655172413793" width="37.241379310344826" height="37.241379310344826" style="fill:#000000;shape-rendering:crispEdges;"/>
  <rect x="744.8275862068965" y="148.9655172413793" width="37.241379310344826" height="37.241379310344826" style="fill:#000000;shape-rendering:crispEdges;"/>
  <rect x="782.0689655172414" y="148.9655172413793" width="37.241379310344826" height="37.241379310344826" style="fill:#000000;shape-rendering:crispEdges;"/>
  <rect x="819.3103448275862" y="148.9655172413793" width="37.241379310344826" height="37.241379310344826" style="fill:#000000;shape-rendering:crispEdges;"/>
  <rect x="856.5517241379309" y="148.9655172413793" width="37.241379310344826" height="37.241379310344826" style="fill:#000000;shape-rendering:crispEdges;"/>
  <rect x="893.7931034482758" y="148.9655172413793" width="37.241379310344826" height="37.241379310344826" style="fill:#000000;shape-rendering:crispEdges;"/>
  <rect x="148.9655172413793" y="186.20689655172413" width="37.241379310344826" height="37.241379310344826" style="fill:#000000;shape-rendering:crispEdges;"/>
  <rect x="372.41379310344826" y="186.20689655172413" width="37.241379310344826" height="37.241379310344826" style="fill:#000000;shape-rendering:crispEdges;"/>
  <rect x="484.13793103448273" y="186.20689655172413" width="37.241379310344826" height="37.241379310344826" style="fill:#000000;shape-rendering:crispEdges;"/>
  <rect x="521.3793103448276" y="186.20689655172413" width="37.241379310344826" height="37.241379310344826" style="fill:#000000;shape-rendering:crispEdges;"/>
  <rect x="558.6206896551723" y="186.20689655172413" width="37.241379310344826" height="37.241379310344826" style="fill:#000000;shape-rendering:crispEdges;"/>
  <rect x="595.8620689655172" y="186.20689655172413" width="37.241379310344826" height="37.241379310344826" style="fill:#000000;shape-rendering:crispEdges;"/>
  <rect x="670.3448275862069" y="186.20689655172413" width="37.241379310344826" height="37.241379310344826" style="fill:#000000;shape-rendering:crispEdges;"/>
  <rect x="893.7931034482758" y="186.20689655172413" width="37.241379310344826" height="37.241379310344826" style="fill:#000000;shape-rendering:crispEdges;"/>
  <rect x="148.9655172413793" y="223.44827586206895" width="37.241379310344826" height="37.241379310344826" style="fill:#000000;shape-rendering:crispEdges;"/>
  <rect x="223.44827586206895" y="223.44827586206895" width="37.241379310344826" height="37.241379310344826" style="fill:#000000;shape-rendering:crispEdges;"/>
  <rect x="260.6896551724138" y="223.44827586206895" width="37.241379310344826" height="37.241379310344826" style="fill:#000000;shape-rendering:crispEdges;"/>
  <rect x="297.9310344827586" y="223.44827586206895" width="37.241379310344826" height="37.241379310344826" style="fill:#000000;shape-rendering:crispEdges;"/>
  <rect x="372.41379310344826" y="223.44827586206895" width="37.241379310344826" height="37.241379310344826" style="fill:#000000;shape-rendering:crispEdges;"/>
  <rect x="446.8965517241379" y="223.44827586206895" width="37.241379310344826" height="37.241379310344826" style="fill:#000000;shape-rendering:crispEdges;"/>
  <rect x="521.3793103448276" y="223.44827586206895" width="37.241379310344826" height="37.241379310344826" style="fill:#000000;shape-rendering:crispEdges;"/>
  <rect x="558.6206896551723" y="223.44827586206895" width="37.241379310344826" height="37.241379310344826" style="fill:#000000;shape-rendering:crispEdges;"/>
  <rect x="670.3448275862069" y="223.44827586206895" width="37.241379310344826" height="37.241379310344826" style="fill:#000000;shape-rendering:crispEdges;"/>
  <rect x="744.8275862068965" y="223.44827586206895" width="37.241379310344826" height="37.241379310344826" style="fill:#000000;shape-rendering:crispEdges;"/>
  <rect x="782.0689655172414" y="223.44827586206895" width="37.241379310344826" height="37.241379310344826" style="fill:#000000;shape-rendering:crispEdges;"/>
  <rect x="819.3103448275862" y="223.44827586206895" width="37.241379310344826" height="37.241379310344826" style="fill:#000000;shape-rendering:crispEdges;"/>
  <rect x="893.7931034482758" y="223.44827586206895" width="37.241379310344826" height="37.241379310344826" style="fill:#000000;shape-rendering:crispEdges;"/>
  <rect x="148.9655172413793" y="260.6896551724138" width="37.241379310344826" height="37.241379310344826" style="fill:#000000;shape-rendering:crispEdges;"/>
  <rect x="223.44827586206895" y="260.6896551724138" width="37.241379310344826" height="37.241379310344826" style="fill:#000000;shape-rendering:crispEdges;"/>
  <rect x="260.6896551724138" y="260.6896551724138" width="37.241379310344826" height="37.241379310344826" style="fill:#000000;shape-rendering:crispEdges;"/>
  <rect x="297.9310344827586" y="260.6896551724138" width="37.241379310344826" height="37.241379310344826" style="fill:#000000;shape-rendering:crispEdges;"/>
  <rect x="372.41379310344826" y="260.6896551724138" width="37.241379310344826" height="37.241379310344826" style="fill:#000000;shape-rendering:crispEdges;"/>
  <rect x="446.8965517241379" y="260.6896551724138" width="37.241379310344826" height="37.241379310344826" style="fill:#000000;shape-rendering:crispEdges;"/>
  <rect x="558.6206896551723" y="260.6896551724138" width="37.241379310344826" height="37.241379310344826" style="fill:#000000;shape-rendering:crispEdges;"/>
  <rect x="670.3448275862069" y="260.6896551724138" width="37.241379310344826" height="37.241379310344826" style="fill:#000000;shape-rendering:crispEdges;"/>
  <rect x="744.8275862068965" y="260.6896551724138" width="37.241379310344826" height="37.241379310344826" style="fill:#000000;shape-rendering:crispEdges;"/>
  <rect x="782.0689655172414" y="260.6896551724138" width="37.241379310344826" height="37.241379310344826" style="fill:#000000;shape-rendering:crispEdges;"/>
  <rect x="819.3103448275862" y="260.6896551724138" width="37.241379310344826" height="37.241379310344826" style="fill:#000000;shape-rendering:crispEdges;"/>
  <rect x="893.7931034482758" y="260.6896551724138" width="37.241379310344826" height="37.241379310344826" style="fill:#000000;shape-rendering:crispEdges;"/>
  <rect x="148.9655172413793" y="297.9310344827586" width="37.241379310344826" height="37.241379310344826" style="fill:#000000;shape-rendering:crispEdges;"/>
  <rect x="223.44827586206895" y="297.9310344827586" width="37.241379310344826" height="37.241379310344826" style="fill:#000000;shape-rendering:crispEdges;"/>
  <rect x="260.6896551724138" y="297.9310344827586" width="37.241379310344826" height="37.241379310344826" style="fill:#000000;shape-rendering:crispEdges;"/>
  <rect x="297.9310344827586" y="297.9310344827586" width="37.241379310344826" height="37.241379310344826" style="fill:#000000;shape-rendering:crispEdges;"/>
  <rect x="372.41379310344826" y="297.9310344827586" width="37.241379310344826" height="37.241379310344826" style="fill:#000000;shape-rendering:crispEdges;"/>
  <rect x="484.13793103448273" y="297.9310344827586" width="37.241379310344826" height="37.241379310344826" style="fill:#000000;shape-rendering:crispEdges;"/>
  <rect x="558.6206896551723" y="297.9310344827586" width="37.241379310344826" height="37.241379310344826" style="fill:#000000;shape-rendering:crispEdges;"/>
  <rect x="595.8620689655172" y="297.9310344827586" width="37.241379310344826" height="37.241379310344826" style="fill:#000000;shape-rendering:crispEdges;"/>
  <rect x="670.3448275862069" y="297.9310344827586" width="37.241379310344826" height="37.241379310344826" style="fill:#000000;shape-rendering:crispEdges;"/>
  <rect x="744.8275862068965" y="297.9310344827586" width="37.241379310344826" height="37.241379310344826" style="fill:#000000;shape-rendering:crispEdges;"/>
  <rect x="782.0689655172414" y="297.9310344827586" width="37.241379310344826" height="37.241379310344826" style="fill:#000000;shape-rendering:crispEdges;"/>
  <rect x="819.3103448275862" y="297.9310344827586" width="37.241379310344826" height="37.241379310344826" style="fill:#000000;shape-rendering:crispEdges;"/>
  <rect x="893.7931034482758" y="297.9310344827586" width="37.241379310344826" height="37.241379310344826" style="fill:#000000;shape-rendering:crispEdges;"/>
  <rect x="148.9655172413793" y="335.17241379310343" width="37.241379310344826" height="37.241379310344826" style="fill:#000000;shape-rendering:crispEdges;"/>
  <rect x="372.41379310344826" y="335.17241379310343" width="37.241379310344826" height="37.241379310344826" style="fill:#000000;shape-rendering:crispEdges;"/>
  <rect x="446.8965517241379" y="335.17241379310343" width="37.241379310344826" height="37.241379310344826" style="fill:#000000;shape-rendering:crispEdges;"/>
  <rect x="521.3793103448276" y="335.17241379310343" width="37.241379310344826" height="37.241379310344826" style="fill:#000000;shape-rendering:crispEdges;"/>
  <rect x="670.3448275862069" y="335.17241379310343" width="37.241379310344826" height="37.241379310344826" style="fill:#000000;shape-rendering:crispEdges;"/>
  <rect x="893.7931034482758" y="335.17241379310343" width="37.241379310344826" height="37.241379310344826" style="fill:#000000;shape-rendering:crispEdges;"/>
  <rect x="148.9655172413793" y="372.41379310344826" width="37.241379310344826" height="37.241379310344826" style="fill:#000000;shape-rendering:crispEdges;"/>
  <rect x="186.20689655172413" y="372.41379310344826" width="37.241379310344826" height="37.241379310344826" style="fill:#000000;shape-rendering:crispEdges;"/>
  <rect x="223.44827586206895" y="372.41379310344826" width="37.241379310344826" height="37.241379310344826" style="fill:#000000;shape-rendering:crispEdges;"/>
  <rect x="260.6896551724138" y="372.41379310344826" width="37.241379310344826" height="37.241379310344826" style="fill:#000000;shape-rendering:crispEdges;"/>
  <rect x="297.9310344827586" y="372.41379310344826" width="37.241379310344826" height="37.241379310344826" style="fill:#000000;shape-rendering:crispEdges;"/>
  <rect x="335.17241379310343" y="372.41379310344826" width="37.241379310344826" height="37.241379310344826" style="fill:#000000;shape-rendering:crispEdges;"/>
  <rect x="372.41379310344826" y="372.41379310344826" width="37.241379310344826" height="37.241379310344826" style="fill:#000000;shape-rendering:crispEdges;"/>
  <rect x="446.8965517241379" y="372.41379310344826" width="37.241379310344826" height="37.241379310344826" style="fill:#000000;shape-rendering:crispEdges;"/>
  <rect x="521.3793103448276" y="372.41379310344826" width="37.241379310344826" height="37.241379310344826" style="fill:#000000;shape-rendering:crispEdges;"/>
  <rect x="595.8620689655172" y="372.41379310344826" width="37.241379310344826" height="37.241379310344826" style="fill:#000000;shape-rendering:crispEdges;"/>
  <rect x="670.3448275862069" y="372.41379310344826" width="37.241379310344826" height="37.241379310344826" style="fill:#000000;shape-rendering:crispEdges;"/>
  <rect x="707.5862068965516" y="372.41379310344826" width="37.241379310344826" height="37.241379310344826" style="fill:#000000;shape-rendering:crispEdges;"/>
  <rect x="744.8275862068965" y="372.41379310344826" width="37.241379310344826" height="37.241379310344826" style="fill:#000000;shape-rendering:crispEdges;"/>
  <rect x="782.0689655172414" y="372.41379310344826" width="37.241379310344826" height="37.241379310344826" style="fill:#000000;shape-rendering:crispEdges;"/>
  <rect x="819.3103448275862" y="372.41379310344826" width="37.241379310344826" height="37.241379310344826" style="fill:#000000;shape-rendering:crispEdges;"/>
  <rect x="856.5517241379309" y="372.41379310344826" width="37.241379310344826" height="37.241379310344826" style="fill:#000000;shape-rendering:crispEdges;"/>
  <rect x="893.7931034482758" y="372.41379310344826" width="37.241379310344826" height="37.241379310344826" style="fill:#000000;shape-rendering:crispEdges;"/>
  <rect x="446.8965517241379" y="409.6551724137931" width="37.241379310344826" height="37.241379310344826" style="fill:#000000;shape-rendering:crispEdges;"/>
  <rect x="521.3793103448276" y="409.6551724137931" width="37.241379310344826" height="37.241379310344826" style="fill:#000000;shape-rendering:crispEdges;"/>
  <rect x="595.8620689655172" y="409.6551724137931" width="37.241379310344826" height="37.241379310344826" style="fill:#000000;shape-rendering:crispEdges;"/>
  <rect x="148.9655172413793" y="446.8965517241379" width="37.241379310344826" height="37.241379310344826" style="fill:#000000;shape-rendering:crispEdges;"/>
  <rect x="186.20689655172413" y="446.8965517241379" width="37.241379310344826" height="37.241379310344826" style="fill:#000000;shape-rendering:crispEdges;"/>
  <rect x="260.6896551724138" y="446.8965517241379" width="37.241379310344826" height="37.241379310344826" style="fill:#000000;shape-rendering:crispEdges;"/>
  <rect x="372.41379310344826" y="446.8965517241379" width="37.241379310344826" height="37.241379310344826" style="fill:#000000;shape-rendering:crispEdges;"/>
  <rect x="409.6551724137931" y="446.8965517241379" width="37.241379310344826" height="37.241379310344826" style="fill:#000000;shape-rendering:crispEdges;"/>
  <rect x="558.6206896551723" y="446.8965517241379" width="37.241379310344826" height="37.241379310344826" style="fill:#000000;shape-rendering:crispEdges;"/>
  <rect x="595.8620689655172" y="446.8965517241379" width="37.241379310344826" height="37.241379310344826" style="fill:#000000;shape-rendering:crispEdges;"/>
  <rect x="633.1034482758621" y="446.8965517241379" width="37.241379310344826" height="37.241379310344826" style="fill:#000000;shape-rendering:crispEdges;"/>
  <rect x="670.3448275862069" y="446.8965517241379" width="37.241379310344826" height="37.241379310344826" style="fill:#000000;shape-rendering:crispEdges;"/>
  <rect x="707.5862068965516" y="446.8965517241379" width="37.241379310344826" height="37.241379310344826" style="fill:#000000;shape-rendering:crispEdges;"/>
  <rect x="782.0689655172414" y="446.8965517241379" width="37.241379310344826" height="37.241379310344826" style="fill:#000000;shape-rendering:crispEdges;"/>
  <rect x="819.3103448275862" y="446.8965517241379" width="37.241379310344826" height="37.241379310344826" style="fill:#000000;shape-rendering:crispEdges;"/>
  <rect x="893.7931034482758" y="446.8965517241379" width="37.241379310344826" height="37.241379310344826" style="fill:#000000;shape-rendering:crispEdges;"/>
  <rect x="148.9655172413793" y="484.13793103448273" width="37.241379310344826" height="37.241379310344826" style="fill:#000000;shape-rendering:crispEdges;"/>
  <rect x="223.44827586206895" y="484.13793103448273" width="37.241379310344826" height="37.241379310344826" style="fill:#000000;shape-rendering:crispEdges;"/>
  <rect x="297.9310344827586" y="484.13793103448273" width="37.241379310344826" height="37.241379310344826" style="fill:#000000;shape-rendering:crispEdges;"/>
  <rect x="409.6551724137931" y="484.13793103448273" width="37.241379310344826" height="37.241379310344826" style="fill:#000000;shape-rendering:crispEdges;"/>
  <rect x="484.13793103448273" y="484.13793103448273" width="37.241379310344826" height="37.241379310344826" style="fill:#000000;shape-rendering:crispEdges;"/>
  <rect x="595.8620689655172" y="484.13793103448273" width="37.241379310344826" height="37.241379310344826" style="fill:#000000;shape-rendering:crispEdges;"/>
  <rect x="633.1034482758621" y="484.13793103448273" width="37.241379310344826" height="37.241379310344826" style="fill:#000000;shape-rendering:crispEdges;"/>
  <rect x="670.3448275862069" y="484.13793103448273" width="37.241379310344826" height="37.241379310344826" style="fill:#000000;shape-rendering:crispEdges;"/>
  <rect x="819.3103448275862" y="484.13793103448273" width="37.241379310344826" height="37.241379310344826" style="fill:#000000;shape-rendering:crispEdges;"/>
  <rect x="856.5517241379309" y="484.13793103448273" width="37.241379310344826" height="37.241379310344826" style="fill:#000000;shape-rendering:crispEdges;"/>
  <rect x="893.7931034482758" y="484.13793103448273" width="37.241379310344826" height="37.241379310344826" style="fill:#000000;shape-rendering:crispEdges;"/>
  <rect x="148.9655172413793" y="521.3793103448276" width="37.241379310344826" height="37.241379310344826" style="fill:#000000;shape-rendering:crispEdges;"/>
  <rect x="260.6896551724138" y="521.3793103448276" width="37.241379310344826" height="37.241379310344826" style="fill:#000000;shape-rendering:crispEdges;"/>
  <rect x="335.17241379310343" y="521.3793103448276" width="37.241379310344826" height="37.241379310344826" style="fill:#000000;shape-rendering:crispEdges;"/>
  <rect x="372.41379310344826" y="521.3793103448276" width="37.241379310344826" height="37.241379310344826" style="fill:#000000;shape-rendering:crispEdges;"/>
  <rect x="409.6551724137931" y="521.3793103448276" width="37.241379310344826" height="37.241379310344826" style="fill:#000000;shape-rendering:crispEdges;"/>
  <rect x="446.8965517241379" y="521.3793103448276" width="37.241379310344826" height="37.241379310344826" style="fill:#000000;shape-rendering:crispEdges;"/>
  <rect x="484.13793103448273" y="521.3793103448276" width="37.241379310344826" height="37.241379310344826" style="fill:#000000;shape-rendering:crispEdges;"/>
  <rect x="595.8620689655172" y="521.3793103448276" width="37.241379310344826" height="37.241379310344826" style="fill:#000000;shape-rendering:crispEdges;"/>
  <rect x="670.3448275862069" y="521.3793103448276" width="37.241379310344826" height="37.241379310344826" style="fill:#000000;shape-rendering:crispEdges;"/>
  <rect x="707.5862068965516" y="521.3793103448276" width="37.241379310344826" height="37.241379310344826" style="fill:#000000;shape-rendering:crispEdges;"/>
  <rect x="782.0689655172414" y="521.3793103448276" width="37.241379310344826" height="37.241379310344826" style="fill:#000000;shape-rendering:crispEdges;"/>
  <rect x="893.7931034482758" y="521.3793103448276" width="37.241379310344826" height="37.241379310344826" style="fill:#000000;shape-rendering:crispEdges;"/>
  <rect x="223.44827586206895" y="558.6206896551723" width="37.241379310344826" height="37.241379310344826" style="fill:#000000;shape-rendering:crispEdges;"/>
  <rect x="595.8620689655172" y="558.6206896551723" width="37.241379310344826" height="37.241379310344826" style="fill:#000000;shape-rendering:crispEdges;"/>
  <rect x="707.5862068965516" y="558.6206896551723" width="37.241379310344826" height="37.241379310344826" style="fill:#000000;shape-rendering:crispEdges;"/>
  <rect x="744.8275862068965" y="558.6206896551723" width="37.241379310344826" height="37.241379310344826" style="fill:#000000;shape-rendering:crispEdges;"/>
  <rect x="819.3103448275862" y="558.6206896551723" width="37.241379310344826" height="37.241379310344826" style="fill:#000000;shape-rendering:crispEdges;"/>
  <rect x="856.5517241379309" y="558.6206896551723" width="37.241379310344826" height="37.241379310344826" style="fill:#000000;shape-rendering:crispEdges;"/>
  <rect x="893.7931034482758" y="558.6206896551723" width="37.241379310344826" height="37.241379310344826" style="fill:#000000;shape-rendering:crispEdges;"/>
  <rect x="148.9655172413793" y="595.8620689655172" width="37.241379310344826" height="37.241379310344826" style="fill:#000000;shape-rendering:crispEdges;"/>
  <rect x="186.20689655172413" y="595.8620689655172" width="37.241379310344826" height="37.241379310344826" style="fill:#000000;shape-rendering:crispEdges;"/>
  <rect x="223.44827586206895" y="595.8620689655172" width="37.241379310344826" height="37.241379310344826" style="fill:#000000;shape-rendering:crispEdges;"/>
  <rect x="372.41379310344826" y="595.8620689655172" width="37.241379310344826" height="37.241379310344826" style="fill:#000000;shape-rendering:crispEdges;"/>
  <rect x="484.13793103448273" y="595.8620689655172" width="37.241379310344826" height="37.241379310344826" style="fill:#000000;shape-rendering:crispEdges;"/>
  <rect x="521.3793103448276" y="595.8620689655172" width="37.241379310344826" height="37.241379310344826" style="fill:#000000;shape-rendering:crispEdges;"/>
  <rect x="558.6206896551723" y="595.8620689655172" width="37.241379310344826" height="37.241379310344826" style="fill:#000000;shape-rendering:crispEdges;"/>
  <rect x="707.5862068965516" y="595.8620689655172" width="37.241379310344826" height="37.241379310344826" style="fill:#000000;shape-rendering:crispEdges;"/>
  <rect x="856.5517241379309" y="595.8620689655172" width="37.241379310344826" height="37.241379310344826" style="fill:#000000;shape-rendering:crispEdges;"/>
  <rect x="893.7931034482758" y="595.8620689655172" width="37.241379310344826" height="37.241379310344826" style="fill:#000000;shape-rendering:crispEdges;"/>
  <rect x="521.3793103448276" y="633.1034482758621" width="37.241379310344826" height="37.241379310344826" style="fill:#000000;shape-rendering:crispEdges;"/>
  <rect x="558.6206896551723" y="633.1034482758621" width="37.241379310344826" height="37.241379310344826" style="fill:#000000;shape-rendering:crispEdges;"/>
  <rect x="595.8620689655172" y="633.1034482758621" width="37.241379310344826" height="37.241379310344826" style="fill:#000000;shape-rendering:crispEdges;"/>
  <rect x="633.1034482758621" y="633.1034482758621" width="37.241379310344826" height="37.241379310344826" style="fill:#000000;shape-rendering:crispEdges;"/>
  <rect x="670.3448275862069" y="633.1034482758621" width="37.241379310344826" height="37.241379310344826" style="fill:#000000;shape-rendering:crispEdges;"/>
  <rect x="707.5862068965516" y="633.1034482758621" width="37.241379310344826" height="37.241379310344826" style="fill:#000000;shape-rendering:crispEdges;"/>
  <rect x="782.0689655172414" y="633.1034482758621" width="37.241379310344826" height="37.241379310344826" style="fill:#000000;shape-rendering:crispEdges;"/>
  <rect x="819.3103448275862" y="633.1034482758621" width="37.241379310344826" height="37.241379310344826" style="fill:#000000;shape-rendering:crispEdges;"/>
  <rect x="148.9655172413793" y="670.3448275862069" width="37.241379310344826" height="37.241379310344826" style="fill:#000000;shape-rendering:crispEdges;"/>
  <rect x="186.20689655172413" y="670.3448275862069" width="37.241379310344826" height="37.241379310344826" style="fill:#000000;shape-rendering:crispEdges;"/>
  <rect x="223.44827586206895" y="670.3448275862069" width="37.241379310344826" height="37.241379310344826" style="fill:#000000;shape-rendering:crispEdges;"/>
  <rect x="260.6896551724138" y="670.3448275862069" width="37.241379310344826" height="37.241379310344826" style="fill:#000000;shape-rendering:crispEdges;"/>
  <rect x="297.9310344827586" y="670.3448275862069" width="37.241379310344826" height="37.241379310344826" style="fill:#000000;shape-rendering:crispEdges;"/>
  <rect x="335.17241379310343" y="670.3448275862069" width="37.241379310344826" height="37.241379310344826" style="fill:#000000;shape-rendering:crispEdges;"/>
  <rect x="372.41379310344826" y="670.3448275862069" width="37.241379310344826" height="37.241379310344826" style="fill:#000000;shape-rendering:crispEdges;"/>
  <rect x="446.8965517241379" y="670.3448275862069" width="37.241379310344826" height="37.241379310344826" style="fill:#000000;shape-rendering:crispEdges;"/>
  <rect x="521.3793103448276" y="670.3448275862069" width="37.241379310344826" height="37.241379310344826" style="fill:#000000;shape-rendering:crispEdges;"/>
  <rect x="670.3448275862069" y="670.3448275862069" width="37.241379310344826" height="37.241379310344826" style="fill:#000000;shape-rendering:crispEdges;"/>
  <rect x="707.5862068965516" y="670.3448275862069" width="37.241379310344826" height="37.241379310344826" style="fill:#000000;shape-rendering:crispEdges;"/>
  <rect x="744.8275862068965" y="670.3448275862069" width="37.241379310344826" height="37.241379310344826" style="fill:#000000;shape-rendering:crispEdges;"/>
  <rect x="856.5517241379309" y="670.3448275862069" width="37.241379310344826" height="37.241379310344826" style="fill:#000000;shape-rendering:crispEdges;"/>
  <rect x="148.9655172413793" y="707.5862068965516" width="37.241379310344826" height="37.241379310344826" style="fill:#000000;shape-rendering:crispEdges;"/>
  <rect x="372.41379310344826" y="707.5862068965516" width="37.241379310344826" height="37.241379310344826" style="fill:#000000;shape-rendering:crispEdges;"/>
  <rect x="484.13793103448273" y="707.5862068965516" width="37.241379310344826" height="37.241379310344826" style="fill:#000000;shape-rendering:crispEdges;"/>
  <rect x="521.3793103448276" y="707.5862068965516" width="37.241379310344826" height="37.241379310344826" style="fill:#000000;shape-rendering:crispEdges;"/>
  <rect x="707.5862068965516" y="707.5862068965516" width="37.241379310344826" height="37.241379310344826" style="fill:#000000;shape-rendering:crispEdges;"/>
  <rect x="744.8275862068965" y="707.5862068965516" width="37.241379310344826" height="37.241379310344826" style="fill:#000000;shape-rendering:crispEdges;"/>
  <rect x="893.7931034482758" y="707.5862068965516" width="37.241379310344826" height="37.241379310344826" style="fill:#000000;shape-rendering:crispEdges;"/>
  <rect x="148.9655172413793" y="744.8275862068965" width="37.241379310344826" height="37.241379310344826" style="fill:#000000;shape-rendering:crispEdges;"/>
  <rect x="223.44827586206895" y="744.8275862068965" width="37.241379310344826" height="37.241379310344826" style="fill:#000000;shape-rendering:crispEdges;"/>
  <rect x="260.6896551724138" y="744.8275862068965" width="37.241379310344826" height="37.241379310344826" style="fill:#000000;shape-rendering:crispEdges;"/>
  <rect x="297.9310344827586" y="744.8275862068965" width="37.241379310344826" height="37.241379310344826" style="fill:#000000;shape-rendering:crispEdges;"/>
  <rect x="372.41379310344826" y="744.8275862068965" width="37.241379310344826" height="37.241379310344826" style="fill:#000000;shape-rendering:crispEdges;"/>
  <rect x="521.3793103448276" y="744.8275862068965" width="37.241379310344826" height="37.241379310344826" style="fill:#000000;shape-rendering:crispEdges;"/>
  <rect x="595.8620689655172" y="744.8275862068965" width="37.241379310344826" height="37.241379310344826" style="fill:#000000;shape-rendering:crispEdges;"/>
  <rect x="670.3448275862069" y="744.8275862068965" width="37.241379310344826" height="37.241379310344826" style="fill:#000000;shape-rendering:crispEdges;"/>
  <rect x="707.5862068965516" y="744.8275862068965" width="37.241379310344826" height="37.241379310344826" style="fill:#000000;shape-rendering:crispEdges;"/>
  <rect x="856.5517241379309" y="744.8275862068965" width="37.241379310344826" height="37.241379310344826" style="fill:#000000;shape-rendering:crispEdges;"/>
  <rect x="893.7931034482758" y="744.8275862068965" width="37.241379310344826" height="37.241379310344826" style="fill:#000000;shape-rendering:crispEdges;"/>
  <rect x="148.9655172413793" y="782.0689655172414" width="37.241379310344826" height="37.241379310344826" style="fill:#000000;shape-rendering:crispEdges;"/>
  <rect x="223.44827586206895" y="782.0689655172414" width="37.241379310344826" height="37.241379310344826" style="fill:#000000;shape-rendering:crispEdges;"/>
  <rect x="260.6896551724138" y="782.0689655172414" width="37.241379310344826" height="37.241379310344826" style="fill:#000000;shape-rendering:crispEdges;"/>
  <rect x="297.9310344827586" y="782.0689655172414" width="37.241379310344826" height="37.241379310344826" style="fill:#000000;shape-rendering:crispEdges;"/>
  <rect x="372.41379310344826" y="782.0689655172414" width="37.241379310344826" height="37.241379310344826" style="fill:#000000;shape-rendering:crispEdges;"/>
  <rect x="446.8965517241379" y="782.0689655172414" width="37.241379310344826" height="37.241379310344826" style="fill:#000000;shape-rendering:crispEdges;"/>
  <rect x="484.13793103448273" y="782.0689655172414" width="37.241379310344826" height="37.241379310344826" style="fill:#000000;shape-rendering:crispEdges;"/>
  <rect x="521.3793103448276" y="782.0689655172414" width="37.241379310344826" height="37.241379310344826" style="fill:#000000;shape-rendering:crispEdges;"/>
  <rect x="558.6206896551723" y="782.0689655172414" width="37.241379310344826" height="37.241379310344826" style="fill:#000000;shape-rendering:crispEdges;"/>
  <rect x="707.5862068965516" y="782.0689655172414" width="37.241379310344826" height="37.241379310344826" style="fill:#000000;shape-rendering:crispEdges;"/>
  <rect x="744.8275862068965" y="782.0689655172414" width="37.241379310344826" height="37.241379310344826" style="fill:#000000;shape-rendering:crispEdges;"/>
  <rect x="782.0689655172414" y="782.0689655172414" width="37.241379310344826" height="37.241379310344826" style="fill:#000000;shape-rendering:crispEdges;"/>
  <rect x="148.9655172413793" y="819.3103448275862" width="37.241379310344826" height="37.241379310344826" style="fill:#000000;shape-rendering:crispEdges;"/>
  <rect x="223.44827586206895" y="819.3103448275862" width="37.241379310344826" height="37.241379310344826" style="fill:#000000;shape-rendering:crispEdges;"/>
  <rect x="260.6896551724138" y="819.3103448275862" width="37.241379310344826" height="37.241379310344826" style="fill:#000000;shape-rendering:crispEdges;"/>
  <rect x="297.9310344827586" y="819.3103448275862" width="37.241379310344826" height="37.241379310344826" style="fill:#000000;shape-rendering:crispEdges;"/>
  <rect x="372.41379310344826" y="819.3103448275862" width="37.241379310344826" height="37.241379310344826" style="fill:#000000;shape-rendering:crispEdges;"/>
  <rect x="484.13793103448273" y="819.3103448275862" width="37.241379310344826" height="37.241379310344826" style="fill:#000000;shape-rendering:crispEdges;"/>
  <rect x="521.3793103448276" y="819.3103448275862" width="37.241379310344826" height="37.241379310344826" style="fill:#000000;shape-rendering:crispEdges;"/>
  <rect x="670.3448275862069" y="819.3103448275862" width="37.241379310344826" height="37.241379310344826" style="fill:#000000;shape-rendering:crispEdges;"/>
  <rect x="707.5862068965516" y="819.3103448275862" width="37.241379310344826" height="37.241379310344826" style="fill:#000000;shape-rendering:crispEdges;"/>
  <rect x="744.8275862068965" y="819.3103448275862" width="37.241379310344826" height="37.241379310344826" style="fill:#000000;shape-rendering:crispEdges;"/>
  <rect x="893.7931034482758" y="819.3103448275862" width="37.241379310344826" height="37.241379310344826" style="fill:#000000;shape-rendering:crispEdges;"/>
  <rect x="148.9655172413793" y="856.5517241379309" width="37.241379310344826" height="37.241379310344826" style="fill:#000000;shape-rendering:crispEdges;"/>
  <rect x="372.41379310344826" y="856.5517241379309" width="37.241379310344826" height="37.241379310344826" style="fill:#000000;shape-rendering:crispEdges;"/>
  <rect x="446.8965517241379" y="856.5517241379309" width="37.241379310344826" height="37.241379310344826" style="fill:#000000;shape-rendering:crispEdges;"/>
  <rect x="521.3793103448276" y="856.5517241379309" width="37.241379310344826" height="37.241379310344826" style="fill:#000000;shape-rendering:crispEdges;"/>
  <rect x="558.6206896551723" y="856.5517241379309" width="37.241379310344826" height="37.241379310344826" style="fill:#000000;shape-rendering:crispEdges;"/>
  <rect x="595.8620689655172" y="856.5517241379309" width="37.241379310344826" height="37.241379310344826" style="fill:#000000;shape-rendering:crispEdges;"/>
  <rect x="744.8275862068965" y="856.5517241379309" width="37.241379310344826" height="37.241379310344826" style="fill:#000000;shape-rendering:crispEdges;"/>
  <rect x="782.0689655172414" y="856.5517241379309" width="37.241379310344826" height="37.241379310344826" style="fill:#000000;shape-rendering:crispEdges;"/>
  <rect x="148.9655172413793" y="893.7931034482758" width="37.241379310344826" height="37.241379310344826" style="fill:#000000;shape-rendering:crispEdges;"/>
  <rect x="186.20689655172413" y="893.7931034482758" width="37.241379310344826" height="37.241379310344826" style="fill:#000000;shape-rendering:crispEdges;"/>
  <rect x="223.44827586206895" y="893.7931034482758" width="37.241379310344826" height="37.241379310344826" style="fill:#000000;shape-rendering:crispEdges;"/>
  <rect x="260.6896551724138" y="893.7931034482758" width="37.241379310344826" height="37.241379310344826" style="fill:#000000;shape-rendering:crispEdges;"/>
  <rect x="297.9310344827586" y="893.7931034482758" width="37.241379310344826" height="37.241379310344826" style="fill:#000000;shape-rendering:crispEdges;"/>
  <rect x="335.17241379310343" y="893.7931034482758" width="37.241379310344826" height="37.241379310344826" style="fill:#000000;shape-rendering:crispEdges;"/>
  <rect x="372.41379310344826" y="893.7931034482758" width="37.241379310344826" height="37.241379310344826" style="fill:#000000;shape-rendering:crispEdges;"/>
  <rect x="446.8965517241379" y="893.7931034482758" width="37.241379310344826" height="37.241379310344826" style="fill:#000000;shape-rendering:crispEdges;"/>
  <rect x="484.13793103448273" y="893.7931034482758" width="37.241379310344826" height="37.241379310344826" style="fill:#000000;shape-rendering:crispEdges;"/>
  <rect x="521.3793103448276" y="893.7931034482758" width="37.241379310344826" height="37.241379310344826" style="fill:#000000;shape-rendering:crispEdges;"/>
  <rect x="707.5862068965516" y="893.7931034482758" width="37.241379310344826" height="37.241379310344826" style="fill:#000000;shape-rendering:crispEdges;"/>
  <rect x="744.8275862068965" y="893.7931034482758" width="37.241379310344826" height="37.241379310344826" style="fill:#000000;shape-rendering:crispEdges;"/>
  <rect x="856.5517241379309" y="893.7931034482758" width="37.241379310344826" height="37.241379310344826" style="fill:#000000;shape-rendering:crispEdges;"/>
</svg>